<svg xmlns="http://www.w3.org/2000/svg" viewBox="0 0 512 512" fill="none">
  <rect width="512" height="512" rx="96" fill="#090A0D"/>
  <path d="M244 62C244 46.536 256.536 34 272 34H320C335.464 34 348 46.536 348 62V108C348 119.046 356.954 128 368 128H382C401.882 128 413.409 150.288 401.984 166.56L397 173.657H431.012C448.772 173.657 457.946 194.936 445.747 207.842L281.664 381.451C268.115 395.785 245.259 395.785 231.71 381.451L67.627 207.842C55.428 194.936 64.602 173.657 82.362 173.657H116.374L111.39 166.56C99.965 150.288 111.492 128 131.374 128H146C157.046 128 166 119.046 166 108V94C166 67.49 187.49 46 214 46H244V62Z" fill="#090A0D" stroke="#D4AF37" stroke-width="18" stroke-linejoin="round"/>
  <path d="M146 188H364L256 338L146 188Z" stroke="#F5F1E6" stroke-width="16" stroke-linejoin="round"/>
  <path d="M208 94C208 84.059 216.059 76 226 76H286C295.941 76 304 84.059 304 94V126H208V94Z" fill="#F5F1E6"/>
  <path d="M192 140H320L338 172H174L192 140Z" fill="#F5F1E6"/>
  <path d="M167 204H246V236H210L236 320H194L167 204Z" fill="#F5F1E6"/>
  <path d="M264 204H348C367.882 204 380 215.402 380 234C380 253.598 366.364 264.89 345 264.89H304V320H264V204ZM304 236V236.89H336C344.858 236.89 350 233.167 350 225.9C350 218.634 344.858 214.911 336 214.911H304V236Z" fill="#F5F1E6"/>
</svg>
